<?xml version="1.0" encoding="utf-8"?>
<!-- Generator: Adobe Illustrator 16.0.0, SVG Export Plug-In . SVG Version: 6.00 Build 0)  -->
<!DOCTYPE svg PUBLIC "-//W3C//DTD SVG 1.1//EN" "http://www.w3.org/Graphics/SVG/1.1/DTD/svg11.dtd">
<svg version="1.1" id="Layer_1" xmlns="http://www.w3.org/2000/svg" xmlns:xlink="http://www.w3.org/1999/xlink" x="0px" y="0px"
	 width="660px" height="90px" viewBox="0 0 660 90" enable-background="new 0 0 660 90" xml:space="preserve">
<g>
	<path fill="#110103" d="M115.115,39.953v6.248H6.377v-6.248H115.115z"/>
	<path fill="#110103" d="M154.045,11.405H134.34V4.292h47.965v7.113h-19.801v57.673h-8.459V11.405z"/>
	<path fill="#110103" d="M188.555,0.832h8.459V29.86h0.192c1.346-2.402,3.46-4.518,6.056-5.959c2.499-1.441,5.479-2.403,8.651-2.403
		c6.248,0,16.245,3.845,16.245,19.897v27.683h-8.458V42.356c0-7.497-2.788-13.842-10.766-13.842c-5.479,0-9.805,3.845-11.342,8.459
		c-0.481,1.153-0.577,2.403-0.577,4.037v28.067h-8.459V0.832z"/>
	<path fill="#110103" d="M246.614,47.354c0.192,11.439,7.498,16.148,15.957,16.148c6.056,0,9.708-1.058,12.88-2.402l1.442,6.055
		c-2.98,1.347-8.074,2.884-15.476,2.884c-14.323,0-22.877-9.419-22.877-23.453c0-14.033,8.267-25.088,21.82-25.088
		c15.188,0,19.225,13.361,19.225,21.915c0,1.73-0.192,3.077-0.289,3.941H246.614z M271.414,41.299
		c0.096-5.382-2.211-13.745-11.727-13.745c-8.555,0-12.304,7.882-12.976,13.745H271.414z"/>
	<path fill="#110103" d="M344.275,38.704h-25.184v23.357h28.068v7.017h-36.431V4.292h34.988v7.018h-26.625v20.474h25.184V38.704z"/>
	<path fill="#110103" d="M383.494,69.078l-0.673-5.863h-0.288c-2.596,3.652-7.594,6.921-14.227,6.921
		c-9.42,0-14.227-6.633-14.227-13.361c0-11.246,9.997-17.397,27.972-17.302v-0.961c0-3.845-1.058-10.766-10.573-10.766
		c-4.325,0-8.843,1.346-12.111,3.46l-1.922-5.575c3.845-2.499,9.42-4.133,15.283-4.133c14.227,0,17.687,9.708,17.687,19.032v17.398
		c0,4.037,0.192,7.978,0.769,11.149H383.494z M382.245,45.336c-9.229-0.192-19.706,1.442-19.706,10.478
		c0,5.479,3.653,8.074,7.979,8.074c6.056,0,9.9-3.845,11.246-7.785c0.288-0.865,0.481-1.827,0.481-2.691V45.336z"/>
	<path fill="#110103" d="M444.148,22.556c-0.193,3.364-0.386,7.113-0.386,12.784v27.01c0,10.67-2.114,17.206-6.632,21.244
		c-4.518,4.229-11.054,5.574-16.918,5.574c-5.574,0-11.727-1.346-15.476-3.845l2.114-6.44c3.077,1.923,7.883,3.653,13.65,3.653
		c8.651,0,14.995-4.518,14.995-16.245v-5.19h-0.192c-2.596,4.325-7.594,7.785-14.803,7.785c-11.535,0-19.802-9.804-19.802-22.685
		c0-15.764,10.286-24.703,20.955-24.703c8.074,0,12.496,4.229,14.515,8.074h0.191l0.386-7.017H444.148z M435.4,40.915
		c0-1.442-0.096-2.691-0.48-3.846c-1.538-4.901-5.671-8.938-11.822-8.938c-8.075,0-13.842,6.824-13.842,17.59
		c0,9.132,4.613,16.725,13.745,16.725c5.19,0,9.9-3.268,11.728-8.65c0.479-1.441,0.672-3.076,0.672-4.518V40.915z"/>
	<path fill="#110103" d="M457.797,0.832h8.459v68.246h-8.459V0.832z"/>
	<path fill="#110103" d="M485.192,47.354c0.193,11.439,7.498,16.148,15.957,16.148c6.055,0,9.709-1.058,12.879-2.402l1.443,6.055
		c-2.98,1.347-8.074,2.884-15.477,2.884c-14.322,0-22.877-9.419-22.877-23.453c0-14.033,8.268-25.088,21.821-25.088
		c15.188,0,19.225,13.361,19.225,21.915c0,1.73-0.193,3.077-0.289,3.941H485.192z M509.993,41.299
		c0.096-5.382-2.213-13.745-11.729-13.745c-8.555,0-12.303,7.882-12.977,13.745H509.993z"/>
	<path fill="#110103" d="M653.622,39.953v6.248H544.884v-6.248H653.622z"/>
</g>
</svg>
